<svg xmlns="http://www.w3.org/2000/svg" viewBox="0 0 448 512"><!--!Font Awesome Free 6.5.2 by @fontawesome - https://fontawesome.com License - https://fontawesome.com/license/free Copyright 2024 Fonticons, Inc.--><path fill="#63E6BE" d="M422.2 110L256.2 9.1c-19.9-12.1-44.5-12.1-64.4 0L25.8 110c-5.3 3.2-5.3 11.3 .1 14.5L224 242.6l198.1-118.1c5.4-3.2 5.4-11.2 .1-14.5zm13.8 44.6L240 271.5v223.8c0 12.9 13.4 20.9 24.1 14.4l152.2-92.5c19.7-12 31.8-33.9 31.8-57.7v-197.7c0-6.4-6.6-10.4-12-7.3zM0 161.8v197.7c0 23.8 12.1 45.7 31.8 57.7l152.2 92.5c10.7 6.5 24.1-1.5 24.1-14.4V271.5L12 154.6C6.6 151.4 0 155.4 0 161.8z"/></svg>